<svg xmlns="http://www.w3.org/2000/svg" width="10" height="12" viewBox="0 0 10 12"><g transform="translate(480 16241)"><path d="M5.143,1.429a1,1,0,0,1,1.715,0l4.234,7.056A1,1,0,0,1,10.234,10H1.766A1,1,0,0,1,.909,8.486Z" transform="translate(-470 -16241) rotate(90)" fill="#242424"/><path d="M6,1.944,1.766,9h8.468L6,1.944m0-1a.991.991,0,0,1,.857.486l4.234,7.056A1,1,0,0,1,10.234,10H1.766A1,1,0,0,1,.909,8.486L5.143,1.429A.991.991,0,0,1,6,.944Z" transform="translate(-470 -16241) rotate(90)" fill="#242424"/></g></svg>